#!OML:ASF I:\Actors\actors\Patient Classification 2\Patient 1\Session 1\actor1.ASF
:FULLY-SPECIFIED
:DEGREES
307
root -0.622117 18.635 6.11251 -0.123352 -3.42365 -3.08236
lowerback -0.364264 1.0883 2.1982
upperback -1.75021 1.47512 0.880263
thorax -1.55706 0.712763 -0.343585
lowerneck -12.9774 -3.66514 -3.32162
upperneck 25.3764 -5.42373 3.72229
head 10.4541 -2.38714 1.18812
rclavicle 2.56556e-015 -1.56046e-014
rhumerus -29.1372 4.54236 -70.3592
rradius 59.8897
rwrist -1.80781
rhand -1.11317 -39.01
rfingers 7.12502
rthumb 24.5237 -67.4597
lclavicle 2.56556e-015 -1.56046e-014
lhumerus -38.8158 -12.1122 81.5615
lradius 80.0577
lwrist 28.1006
lhand -18.0066 -21.0201
lfingers 7.12502
lthumb 8.26397 8.79822
rfemur 0 0 0
rtibia 0
rfoot 0 0
rtoes 0
lfemur -1.25452 -6.11409 -12.0478
ltibia 22.0133
lfoot -24.6004 13.8781
ltoes -55.0538
308
root -0.624884 18.6342 6.1183 -0.0999287 -3.55566 -3.06689
lowerback -0.415303 1.31531 2.98148
upperback -1.51313 1.76879 0.372102
thorax -1.24027 0.851402 -1.29891
lowerneck -13.3462 -3.80528 -3.067
upperneck 24.9592 -5.73961 4.03748
head 10.3892 -2.46947 1.20837
rclavicle 6.63444e-015 4.77083e-015
rhumerus -31.4176 2.3501 -71.6421
rradius 59.3672
rwrist -0.911618
rhand -1.70823 -38.35
rfingers 7.12502
rthumb 23.9532 -66.8758
lclavicle 6.63444e-015 4.77083e-015
lhumerus -39.6568 -12.4791 82.6261
lradius 77.8794
lwrist 27.6782
lhand -18.0338 -21.0265
lfingers 7.12502
lthumb 8.23773 8.7929
rfemur 0 0 0
rtibia 0
rfoot 0 0
rtoes 0
lfemur -1.20885 -6.12501 -12.0793
ltibia 21.9911
lfoot -24.6716 13.9923
ltoes -55.0712
309
root -0.628523 18.6341 6.12393 -0.0506439 -3.62142 -3.06631
lowerback -0.325939 1.30438 2.97524
upperback -1.44408 1.7563 0.391206
thorax -1.22083 0.846317 -1.27706
lowerneck -13.5604 -3.72558 -2.95789
upperneck 24.6757 -5.61391 3.9642
head 10.3163 -2.40979 1.17673
rclavicle 1.49089e-015 8.15017e-015
rhumerus -33.5744 1.04101 -72.4635
rradius 58.8982
rwrist 0.120614
rhand -1.68175 -38.3877
rfingers 7.12502
rthumb 23.9786 -66.9102
lclavicle 1.49089e-015 8.15017e-015
lhumerus -40.8065 -11.861 83.9953
lradius 75.6361
lwrist 26.9524
lhand -18.1434 -21.3418
lfingers 7.12502
lthumb 8.13192 8.48174
rfemur 0 0 0
rtibia 0
rfoot 0 0
rtoes 0
lfemur -1.22466 -6.07782 -12.0652
ltibia 21.9742
lfoot -24.6897 14.0061
ltoes -55.0621
310
root -0.631736 18.6341 6.12847 -0.00977315 -3.62335 -3.02986
lowerback 0.00362935 1.02005 2.14183
upperback -1.58701 1.39223 0.920217
thorax -1.60009 0.672965 -0.275961
lowerneck -13.4964 -3.42452 -2.99867
upperneck 24.513 -5.05857 3.54043
head 10.2105 -2.21026 1.10802
rclavicle -1.97418e-014 -8.84592e-015
rhumerus -35.6659 0.779573 -72.8775
rradius 58.4405
rwrist 1.02252
rhand -1.81374 -38.4808
rfingers 7.12502
rthumb 23.852 -67.0199
lclavicle -1.97418e-014 -8.84592e-015
lhumerus -42.2876 -10.1998 85.5654
lradius 73.3691
lwrist 25.9753
lhand -18.1802 -21.7272
lfingers 7.12502
lthumb 8.09638 8.09767
rfemur 0 0 0
rtibia 0
rfoot 0 0
rtoes 0
lfemur -1.26508 -5.96591 -12.0736
ltibia 21.9655
lfoot -24.6102 13.9547
ltoes -55.1358
311
root -0.634279 18.635 6.13294 0.0443496 -3.57606 -3.0053
lowerback 0.157849 0.952317 2.15992
upperback -1.57828 1.30655 0.913745
thorax -1.67891 0.629188 -0.294385
lowerneck -13.5419 -3.34773 -2.92649
upperneck 24.1994 -4.96731 3.59632
head 10.1021 -2.15745 1.12653
rclavicle 1.51977e-014 1.19271e-015
rhumerus -37.6789 -0.528277 -73.4976
rradius 58.0146
rwrist 1.64518
rhand -2.05939 -38.3484
rfingers 7.12502
rthumb 23.6164 -66.9181
lclavicle 1.51977e-014 1.19271e-015
lhumerus -43.1676 -9.58033 86.5824
lradius 71.0434
lwrist 25.0871
lhand -18.0986 -22.1781
lfingers 7.12502
lthumb 8.17522 7.64375
rfemur 0 0 0
rtibia 0
rfoot 0 0
rtoes 0
lfemur -1.33298 -5.85128 -12.0612
ltibia 21.9684
lfoot -24.5261 13.8562
ltoes -55.2134
312
root -0.636318 18.6356 6.13815 0.111733 -3.54646 -3.03423
lowerback 0.262249 0.890939 2.22627
upperback -1.55868 1.22872 0.942673
thorax -1.71834 0.589322 -0.302315
lowerneck -13.3922 -3.23218 -2.87621
upperneck 23.678 -4.81823 3.68176
head 9.88162 -2.08137 1.16894
rclavicle -3.93997e-015 3.18055e-015
rhumerus -39.566 -1.68102 -74.0015
rradius 57.6306
rwrist 1.78878
rhand -2.35979 -37.9253
rfingers 7.12502
rthumb 23.3283 -66.5318
lclavicle -3.93997e-015 3.18055e-015
lhumerus -43.9039 -8.87484 87.5066
lradius 68.6945
lwrist 24.0161
lhand -18.1252 -22.6916
lfingers 7.12502
lthumb 8.14946 7.1313
rfemur 0 0 0
rtibia 0
rfoot 0 0
rtoes 0
lfemur -1.40472 -5.84168 -12.0132
ltibia 21.9833
lfoot -24.5393 13.8449
ltoes -55.2707
313
root -0.638754 18.636 6.14185 0.180023 -3.51171 -3.06108
lowerback 0.34451 0.827971 2.3003
upperback -1.53381 1.14799 0.958209
thorax -1.73969 0.547992 -0.327585
lowerneck -13.0673 -3.08961 -2.88417
upperneck 23.0227 -4.6365 3.85411
head 9.58499 -1.98935 1.25667
rclavicle 9.49663e-016 1.25483e-014
rhumerus -41.3302 -2.82418 -74.4728
rradius 57.245
rwrist 1.77659
rhand -2.7789 -37.7385
rfingers 7.12502
rthumb 22.9261 -66.3954
lclavicle 9.49663e-016 1.25483e-014
lhumerus -44.4764 -8.20965 88.3076
lradius 66.2724
lwrist 22.84
lhand -18.3798 -23.1336
lfingers 7.12502
lthumb 7.90381 6.69862
rfemur 0 0 0
rtibia 0
rfoot 0 0
rtoes 0
lfemur -1.48088 -5.92502 -11.9792
ltibia 22.007
lfoot -24.5933 13.8971
ltoes -55.2568
314
root -0.641819 18.6365 6.1432 0.222528 -3.45453 -3.06357
lowerback 0.43696 0.75522 2.34346
upperback -1.47944 1.05341 0.960976
thorax -1.73723 0.500516 -0.348179
lowerneck -12.9484 -2.98687 -2.93112
upperneck 22.5889 -4.50414 4.01632
head 9.41013 -1.91977 1.3375
rclavicle 1.27463e-014 2.84511e-015
rhumerus -42.9578 -4.0007 -74.8997
rradius 56.8803
rwrist 1.67684
rhand -3.15775 -37.8299
rfingers 7.12502
rthumb 22.5626 -66.5314
lclavicle 1.27463e-014 2.84511e-015
lhumerus -44.8609 -7.66641 89.0095
lradius 63.788
lwrist 21.7324
lhand -18.686 -23.5731
lfingers 7.12502
lthumb 7.60821 6.27006
rfemur 0 0 0
rtibia 0
rfoot 0 0
rtoes 0
lfemur -1.54409 -5.95149 -11.9602
ltibia 22.0323
lfoot -24.5811 13.9127
ltoes -55.293
315
root -0.63918 18.6378 6.14183 0.298053 -3.57308 -3.03595
lowerback 0.529653 0.750775 2.41988
upperback -1.43316 1.05047 0.952727
thorax -1.74042 0.498166 -0.400308
lowerneck -12.984 -2.91069 -2.93319
upperneck 22.326 -4.39694 4.06971
head 9.32199 -1.86607 1.36811
rclavicle 1.74034e-014 -4.46644e-015
rhumerus -44.4562 -5.22858 -75.2032
rradius 56.4677
rwrist 1.60597
rhand -3.44725 -37.7162
rfingers 7.12502
rthumb 22.2847 -66.4512
lclavicle 1.74034e-014 -4.46644e-015
lhumerus -45.1036 -7.18919 89.6718
lradius 61.2523
lwrist 20.7322
lhand -18.9952 -24.1311
lfingers 7.12502
lthumb 7.30974 5.72262
rfemur 0 0 0
rtibia 0
rfoot 0 0
rtoes 0
lfemur -1.6124 -6.0291 -12.0422
ltibia 22.053
lfoot -24.6493 14.1522
ltoes -55.3894
316
root -0.628056 18.6429 6.13648 0.553126 -3.9961 -2.98707
lowerback 0.588109 0.866064 2.62258
upperback -1.50898 1.21017 0.904815
thorax -1.84233 0.572997 -0.567448
lowerneck -12.9298 -2.84761 -2.91553
upperneck 22.0712 -4.29551 4.04209
head 9.21799 -1.82332 1.36782
rclavicle 1.24347e-015 2.34457e-014
rhumerus -45.9744 -6.53032 -75.3691
rradius 56.0226
rwrist 1.58692
rhand -3.83883 -37.5167
rfingers 7.12502
rthumb 21.9087 -66.2963
lclavicle 1.24347e-015 2.34457e-014
lhumerus -45.3904 -6.82305 90.3253
lradius 58.7333
lwrist 19.7334
lhand -19.6247 -24.7358
lfingers 7.12502
lthumb 6.70216 5.13813
rfemur 0 0 0
rtibia 0
rfoot 0 0
rtoes 0
lfemur -1.81999 -6.25683 -12.2402
ltibia 22.0754
lfoot -24.9505 14.7134
ltoes -55.2682
317
root -0.631588 18.6423 6.13951 0.598891 -4.01004 -2.98969
lowerback 0.691943 0.845552 2.69191
upperback -1.52787 1.18807 0.900561
thorax -1.91936 0.559844 -0.612019
lowerneck -12.7813 -2.81171 -2.89486
upperneck 21.785 -4.23139 4.00337
head 9.0871 -1.8005 1.35968
rclavicle 1.11933e-014 1.06008e-014
rhumerus -47.5322 -7.91668 -75.447
rradius 55.5831
rwrist 1.52061
rhand -4.30689 -37.4048
rfingers 7.12502
rthumb 21.4592 -66.2362
lclavicle 1.11933e-014 1.06008e-014
lhumerus -45.7065 -6.47907 90.9082
lradius 56.264
lwrist 18.6571
lhand -20.4779 -25.3489
lfingers 7.12502
lthumb 5.87839 4.54957
rfemur 0 0 0
rtibia 0
rfoot 0 0
rtoes 0
lfemur -1.85775 -6.35943 -12.2351
ltibia 22.0868
lfoot -25.0322 14.7346
ltoes -55.1467
318
root -0.635858 18.6418 6.14191 0.648177 -4.00137 -3.04879
lowerback 0.76335 0.817564 2.80423
upperback -1.52502 1.15529 0.902583
thorax -1.95557 0.541355 -0.673155
lowerneck -12.6292 -2.80026 -2.85329
upperneck 21.5169 -4.21639 4.00286
head 8.96479 -1.79477 1.35537
rclavicle -3.02157e-015 1.54369e-014
rhumerus -48.9397 -9.47504 -75.4427
rradius 55.0333
rwrist 1.49142
rhand -4.62782 -37.1806
rfingers 7.12502
rthumb 21.151 -66.0468
lclavicle -3.02157e-015 1.54369e-014
lhumerus -45.846 -5.91469 91.2969
lradius 53.7495
lwrist 17.322
lhand -21.0523 -26.0244
lfingers 7.12502
lthumb 5.32383 3.88876
rfemur 0 0 0
rtibia 0
rfoot 0 0
rtoes 0
lfemur -1.89892 -6.38061 -12.1491
ltibia 22.0823
lfoot -25.0439 14.7096
ltoes -55.1122
319
root -0.64067 18.6416 6.14376 0.681025 -3.99392 -3.06967
lowerback 0.81202 0.775526 2.83435
upperback -1.48908 1.10098 0.916239
thorax -1.94748 0.514275 -0.675205
lowerneck -12.5611 -2.76509 -2.81336
upperneck 21.318 -4.16862 4.00095
head 8.88105 -1.77215 1.35388
rclavicle -7.40881e-015 1.01504e-014
rhumerus -50.1231 -11.0433 -75.352
rradius 54.3406
rwrist 1.41566
rhand -4.94268 -36.9683
rfingers 7.12502
rthumb 20.8485 -65.8681
lclavicle -7.40881e-015 1.01504e-014
lhumerus -45.8161 -5.01506 91.4642
lradius 51.2401
lwrist 15.6697
lhand -21.3262 -26.691
lfingers 7.12502
lthumb 5.0594 3.22862
rfemur 0 0 0
rtibia 0
rfoot 0 0
rtoes 0
lfemur -1.92414 -6.25555 -12.0874
ltibia 22.0613
lfoot -24.9832 14.63
ltoes -55.1126
320
root -0.645381 18.6413 6.14555 0.699457 -3.9799 -3.0099
lowerback 0.870598 0.719572 2.73173
upperback -1.44453 1.02607 0.93976
thorax -1.93907 0.479057 -0.592466
lowerneck -12.5539 -2.67253 -2.76978
upperneck 21.139 -4.03141 3.95765
head 8.81118 -1.71044 1.3474
rclavicle 5.66459e-015 -1.23122e-014
rhumerus -51.2018 -12.4155 -75.2091
rradius 53.6451
rwrist 1.3241
rhand -5.22408 -37.0226
rfingers 7.12502
rthumb 20.5781 -65.9518
lclavicle 5.66459e-015 -1.23122e-014
lhumerus -45.7294 -3.60772 91.3576
lradius 48.8402
lwrist 13.7426
lhand -21.4248 -27.3253
lfingers 7.12502
lthumb 4.96415 2.5966
rfemur 0 0 0
rtibia 0
rfoot 0 0
rtoes 0
lfemur -1.93717 -6.18586 -12.1264
ltibia 22.0347
lfoot -24.9785 14.5811
ltoes -55.0393
321
root -0.650454 18.6406 6.14706 0.716723 -3.96677 -2.93862
lowerback 0.957144 0.681735 2.60441
upperback -1.41609 0.975991 0.953969
thorax -1.96215 0.45602 -0.50647
lowerneck -12.5851 -2.5968 -2.70838
upperneck 21.0326 -3.91762 3.88617
head 8.77345 -1.65998 1.3254
rclavicle -1.12981e-015 -1.32689e-014
rhumerus -52.2384 -13.7568 -75.0035
rradius 52.9297
rwrist 1.50075
rhand -5.15276 -37.0903
rfingers 7.12502
rthumb 20.6466 -66.0122
lclavicle -1.12981e-015 -1.32689e-014
lhumerus -45.6982 -1.67832 90.8978
lradius 46.6683
lwrist 11.5788
lhand -21.4435 -28.0206
lfingers 7.12502
lthumb 4.9461 1.90164
rfemur 0 0 0
rtibia 0
rfoot 0 0
rtoes 0
lfemur -1.93933 -6.19011 -12.1845
ltibia 22.0038
lfoot -25.0208 14.5406
ltoes -54.9448
322
root -0.656234 18.6398 6.14755 0.72849 -3.96929 -2.93537
lowerback 1.04489 0.646493 2.56325
upperback -1.39202 0.930863 0.959415
thorax -1.98867 0.434025 -0.477691
lowerneck -12.6506 -2.53562 -2.66255
upperneck 21.0327 -3.83637 3.86569
head 8.78124 -1.61942 1.31945
rclavicle -1.4773e-014 -9.59136e-015
rhumerus -53.1778 -15.0647 -74.7856
rradius 52.0429
rwrist 1.73004
rhand -5.29937 -36.6996
rfingers 7.12502
rthumb 20.5058 -65.6367
lclavicle -1.4773e-014 -9.59136e-015
lhumerus -45.7867 0.557803 90.1231
lradius 44.8416
lwrist 9.5705
lhand -21.6101 -28.7416
lfingers 7.12502
lthumb 4.78523 1.18437
rfemur 0 0 0
rtibia 0
rfoot 0 0
rtoes 0
lfemur -1.93391 -6.1401 -12.1542
ltibia 21.9747
lfoot -25.0102 14.4651
ltoes -54.9021
